<svg width="63" height="30" viewBox="0 0 63 30" fill="none" xmlns="http://www.w3.org/2000/svg">
<path d="M12.8282 20.6684C12.258 19.9068 11.5039 19.3478 10.5622 18.9989C11.245 18.575 11.7702 18.061 12.1379 17.4532C12.5056 16.8455 12.6894 16.1289 12.6894 15.2998C12.7081 14.7296 12.5693 14.0655 12.2767 13.3115C11.9616 12.5199 11.3351 11.8296 10.3972 11.2406C9.42174 10.6141 8.2625 10.3102 6.91942 10.3289H0.676758V28.7493H7.85732C8.30001 28.7493 8.75396 28.7118 9.22291 28.6368C9.69186 28.5655 10.1195 28.4529 10.506 28.3066C11.5752 27.8827 12.3705 27.2299 12.8957 26.3445C13.4209 25.4629 13.6836 24.5325 13.6836 23.5571C13.6836 22.3978 13.3984 21.4337 12.8282 20.6684ZM4.18451 13.4765H5.62137C5.78644 13.4765 5.97027 13.484 6.17285 13.5028C6.37544 13.5216 6.56677 13.5403 6.7506 13.5591C6.93443 13.5778 7.09575 13.5966 7.23456 13.6153C7.37337 13.6341 7.45965 13.6416 7.49717 13.6416C8.0299 13.8254 8.43507 14.1068 8.71269 14.482C8.99031 14.8609 9.12537 15.2698 9.12537 15.7125C9.12537 16.0801 9.02407 16.4366 8.82149 16.7742C8.6189 17.1156 8.30001 17.397 7.85732 17.6183C7.54219 17.7834 6.88941 17.8659 5.89524 17.8659H4.18451V13.4765ZM9.83067 24.4275C9.65434 24.7501 9.37672 25.0202 8.99031 25.2416C8.76896 25.3691 8.48384 25.4629 8.13119 25.5154C7.78229 25.5717 7.30584 25.6017 6.69808 25.6017H4.18451V20.8784H6.64181C7.06574 20.8784 7.45965 20.9085 7.82731 20.9722C8.19872 21.0398 8.52136 21.1448 8.79523 21.2911C9.21916 21.5312 9.54179 21.8426 9.76314 22.229C9.98448 22.6192 10.0933 23.0131 10.0933 23.4183C10.0933 23.7672 10.007 24.1048 9.83067 24.4275Z" fill="black"/>
<path d="M22.3011 28.4455C22.226 28.5167 21.8959 28.6368 21.3069 28.8056C20.7554 28.9707 20.1852 29.0532 19.5962 29.0532C18.8383 29.072 18.2268 28.9594 17.7579 28.7193C17.2889 28.483 16.925 28.1829 16.6661 27.8227C16.4073 27.4625 16.2385 27.0724 16.1559 26.6484C16.0734 26.2245 16.0396 25.8494 16.0584 25.5155V10.329H19.4836V24.8552C19.4836 25.3316 19.5811 25.6618 19.7725 25.8344C19.9676 26.0107 20.2377 26.097 20.5903 26.097C20.9392 26.097 21.3069 26.0144 21.6933 25.8494L22.3011 28.4455Z" fill="black"/>
<path d="M34.4262 18.2261C34.2236 17.5996 33.9122 17.0519 33.4995 16.5829C33.0869 16.114 32.5616 15.7463 31.9239 15.4762C31.2898 15.2098 30.547 15.086 29.7029 15.1048C29.279 15.086 28.8325 15.1235 28.3636 15.2173C27.8946 15.3074 27.3919 15.4462 26.8592 15.63C25.8087 15.9789 25.0884 16.3466 24.702 16.733L25.835 19.1378C26.1501 18.8601 26.6078 18.5825 27.2156 18.2936C27.8234 18.0085 28.4611 17.866 29.1214 17.866C29.7854 17.866 30.3032 18.0235 30.6821 18.3349C31.061 18.6501 31.2486 19.1753 31.2486 19.9106V20.1057C30.457 20.1957 29.8305 20.2707 29.369 20.3233C28.9113 20.3795 28.6149 20.4171 28.4874 20.4358C28.0259 20.4921 27.5157 20.6159 26.953 20.8072C26.394 21.0023 25.8688 21.2762 25.3811 21.6363C24.8934 21.9965 24.4882 22.4392 24.1655 22.9644C23.8429 23.4859 23.7003 24.1086 23.7379 24.8252C23.7379 25.4892 23.8617 26.082 24.1093 26.6072C24.3569 27.1324 24.6833 27.5751 25.0884 27.9353C25.4936 28.2917 25.9588 28.5693 26.484 28.7606C27.0093 28.9557 27.557 29.0532 28.1272 29.0532C28.81 29.0532 29.4365 28.9369 30.0068 28.7081C30.577 28.4755 31.046 28.1604 31.4136 27.7552L31.5524 28.7494H34.7V20.1882C34.7188 19.5054 34.6288 18.8526 34.4262 18.2261ZM31.2748 25.2416C30.9822 25.5155 30.6258 25.7481 30.2131 25.9319C29.8004 26.1157 29.369 26.2095 28.9301 26.2095C28.3411 26.2095 27.8834 26.0745 27.5607 25.8081C27.2381 25.5417 27.0768 25.1853 27.0768 24.7427C27.0768 24.3225 27.2193 23.9286 27.5082 23.5684C27.7933 23.212 28.3036 22.9569 29.0389 22.8106C29.2415 22.7731 29.5303 22.7318 29.9092 22.6868C30.2882 22.6418 30.7421 22.5892 31.2748 22.533V25.2416Z" fill="black"/>
<path d="M47.4066 24.7989L48.4008 27.6163C47.9018 27.984 47.2265 28.3179 46.3712 28.6105C45.5121 28.9031 44.5329 29.0532 43.4262 29.0532C42.6158 29.0532 41.8392 28.9144 41.0927 28.6368C40.3499 28.3629 39.6896 27.939 39.1193 27.3687C38.5491 26.7985 38.0914 26.0782 37.7537 25.2153C37.4124 24.3487 37.2435 23.3245 37.2435 22.1465C37.2435 20.492 37.5737 19.0927 38.234 17.9485C38.9167 16.8267 39.7346 16.0726 40.695 15.6862C41.6517 15.2998 42.5333 15.1047 43.3436 15.1047C44.1727 15.1047 44.893 15.2248 45.5008 15.4649C46.1086 15.705 46.6188 15.9901 47.0315 16.3203C47.4479 16.6504 47.778 16.9955 48.0256 17.3557C48.2732 17.7159 48.4533 18.0047 48.5659 18.2261L46.0223 19.9368C45.7484 19.4603 45.4033 19.0139 44.9868 18.5975C44.5742 18.1848 44.0339 17.9785 43.3736 17.9785C42.6346 17.9785 41.9968 18.3049 41.4528 18.9576C40.9088 19.6104 40.6387 20.6271 40.6387 22.0114C40.6387 23.3358 40.9163 24.3487 41.4678 25.0465C42.0193 25.748 42.8222 26.0969 43.8689 26.0969C44.8105 26.0969 45.5608 25.9544 46.1198 25.6692C46.6826 25.3841 47.1102 25.0953 47.4066 24.7989Z" fill="black"/>
<path d="M62.6494 28.7493H58.9203L57.4009 25.1591C57.052 24.33 56.7444 23.7485 56.478 23.4183C56.2117 23.0882 55.829 22.9194 55.33 22.9194H54.2533V28.7493H50.8281V10.329H54.2533V19.9368H55.0824C55.4126 19.9368 55.709 19.843 55.9678 19.648C56.2229 19.4566 56.4893 19.0364 56.7669 18.3912L57.9824 15.4349H61.6815L60.0796 19.164C59.7119 19.9931 59.198 20.6196 58.5339 21.0436C58.9391 21.2461 59.2767 21.49 59.5431 21.7751C59.8095 22.0602 60.0346 22.4241 60.2184 22.8668L62.6494 28.7493Z" fill="black"/>
<path d="M5.76012 0.0495605V6.79119H4.46957V3.93997H1.92223V6.79119H0.62793V0.0495605H1.92223V2.71695H4.46957V0.0495605H5.76012Z" fill="black"/>
<path d="M10.7422 2.93816C10.6672 2.70931 10.5547 2.51047 10.4046 2.3379C10.2545 2.16533 10.0594 2.03027 9.82685 1.93273C9.59425 1.83519 9.32413 1.79017 9.0165 1.79767C8.85893 1.79017 8.69761 1.80517 8.52504 1.83894C8.35247 1.8727 8.16864 1.92147 7.97355 1.989C7.59089 2.11656 7.32828 2.25161 7.18572 2.39417L7.60215 3.27205C7.71469 3.17076 7.88352 3.06946 8.10486 2.96442C8.3262 2.85937 8.5588 2.80685 8.80266 2.80685C9.04651 2.80685 9.23409 2.86688 9.3729 2.97942C9.51171 3.09572 9.57924 3.28706 9.57924 3.55717V3.62845C9.29037 3.66222 9.06152 3.68848 8.8927 3.70724C8.72387 3.72599 8.61883 3.741 8.57006 3.7485C8.40124 3.76726 8.21366 3.81228 8.01107 3.88356C7.80473 3.95484 7.6134 4.05613 7.43332 4.18744C7.25325 4.31875 7.10693 4.48007 6.99063 4.6714C6.87058 4.86273 6.81806 5.09158 6.83307 5.35419C6.83307 5.59804 6.87809 5.81564 6.96812 6.00697C7.05816 6.1983 7.17821 6.35962 7.32828 6.49092C7.47459 6.62223 7.64716 6.72352 7.8385 6.7948C8.02983 6.86608 8.22866 6.89985 8.43875 6.89985C8.69011 6.89985 8.91896 6.85858 9.1253 6.77605C9.33539 6.68976 9.50796 6.57346 9.64302 6.42715L9.69179 6.79105H10.8435V3.65846C10.851 3.40711 10.8173 3.167 10.7422 2.93816ZM9.59049 5.508C9.4817 5.60555 9.35414 5.69183 9.20033 5.75936C9.05026 5.82689 8.8927 5.86065 8.73138 5.86065C8.51754 5.86065 8.34871 5.81188 8.23241 5.71434C8.11236 5.6168 8.05609 5.48549 8.05609 5.32418C8.05609 5.17036 8.10861 5.0278 8.2099 4.89649C8.31495 4.76519 8.50253 4.6714 8.77264 4.61512C8.84768 4.60387 8.95272 4.58886 9.09153 4.5701C9.23034 4.5551 9.39541 4.53634 9.59049 4.51758V5.508Z" fill="black"/>
<path d="M16.2496 3.25335C16.1371 2.84818 15.9157 2.50678 15.5931 2.22166C15.2705 1.94029 14.8765 1.79773 14.4113 1.79773C14.1487 1.79773 13.9199 1.85025 13.7285 1.9553C13.5372 2.06034 13.3834 2.16914 13.2709 2.28169L13.2071 1.91778H12.0666V8.70068H13.3196V6.7611C13.5485 6.85489 13.7623 6.89991 13.9649 6.89991C14.3888 6.89991 14.7903 6.81362 15.1692 6.6373C15.5443 6.46472 15.8482 6.16459 16.0771 5.74066C16.3059 5.32048 16.4222 4.85528 16.4222 4.34507C16.4222 4.03368 16.3659 3.66978 16.2496 3.25335ZM15.1504 4.81777C15.1091 4.98659 15.0379 5.14416 14.9366 5.29422C14.8353 5.44053 14.7002 5.56809 14.5276 5.66938C14.3551 5.77068 14.145 5.8157 13.8974 5.80819C13.7285 5.80819 13.5335 5.76317 13.3084 5.66938V3.31338C13.3834 3.20083 13.4997 3.09203 13.6535 2.99449C13.8073 2.89695 13.9724 2.84818 14.1487 2.84818C14.2688 2.83692 14.4188 2.87819 14.5914 2.97948C14.7677 3.08078 14.9141 3.26461 15.0266 3.52722C15.1504 3.78983 15.2067 4.06745 15.1992 4.36383C15.2067 4.49888 15.1879 4.6527 15.1504 4.81777Z" fill="black"/>
<path d="M21.5656 3.25335C21.4493 2.84818 21.2317 2.50678 20.9091 2.22166C20.5827 1.94029 20.1888 1.79773 19.7236 1.79773C19.461 1.79773 19.2359 1.85025 19.0445 1.9553C18.8532 2.06034 18.6994 2.16914 18.5831 2.28169L18.5231 1.91778H17.3826V8.70068H18.6356V6.7611C18.8645 6.85489 19.0783 6.89991 19.2809 6.89991C19.7048 6.89991 20.1062 6.81362 20.4851 6.6373C20.8603 6.46472 21.1642 6.16459 21.393 5.74066C21.6219 5.32048 21.7344 4.85528 21.7344 4.34507C21.7344 4.03368 21.6782 3.66978 21.5656 3.25335ZM20.4626 4.81777C20.4214 4.98659 20.3501 5.14416 20.2488 5.29422C20.1513 5.44053 20.0124 5.56809 19.8399 5.66938C19.671 5.77068 19.461 5.8157 19.2096 5.80819C19.0408 5.80819 18.8457 5.76317 18.6243 5.66938V3.31338C18.6994 3.20083 18.8119 3.09203 18.9695 2.99449C19.1233 2.89695 19.2884 2.84818 19.461 2.84818C19.5848 2.83692 19.7311 2.87819 19.9074 2.97948C20.0837 3.08078 20.2263 3.26461 20.3426 3.52722C20.4626 3.78983 20.5189 4.06745 20.5152 4.36383C20.5189 4.49888 20.5039 4.6527 20.4626 4.81777Z" fill="black"/>
<path d="M27.0017 1.91772C26.7504 2.90815 26.4878 3.80478 26.2064 4.60762C25.9288 5.40671 25.6474 6.09701 25.3623 6.66725C25.0922 7.18122 24.8521 7.57889 24.6345 7.86026C24.4206 8.12287 24.1055 8.32921 23.6966 8.48303C23.2839 8.63309 22.8187 8.71188 22.2897 8.71938L22.1809 7.59765C22.5448 7.59765 22.8675 7.55263 23.1564 7.46634C23.4415 7.38006 23.6628 7.2375 23.8166 7.04241C23.8429 7.00865 23.8692 6.97113 23.8879 6.92986C23.9067 6.8886 23.9329 6.85108 23.9592 6.80981L21.9596 1.91772H23.3027L24.657 5.65807C24.7695 5.35419 24.8783 5.06157 24.9796 4.7802C25.0809 4.49507 25.1672 4.21371 25.2422 3.92858C25.3773 3.43712 25.4861 3.02445 25.5761 2.6868C25.6624 2.34916 25.7262 2.09405 25.7675 1.91772H27.0017Z" fill="black"/>
</svg>
